<svg width="59" height="58" viewBox="0 0 59 58" fill="none" xmlns="http://www.w3.org/2000/svg">
<path d="M45.801 34.7251C45.6286 34.8293 45.4337 34.9103 45.2221 34.9723C44.8708 35.0771 44.5044 35.1502 44.134 35.2117C43.4499 35.3255 42.7594 35.4166 42.0654 35.4917C41.4867 35.5537 40.9075 35.6103 40.3278 35.6615C40.0455 35.6864 39.76 35.6925 39.4758 35.7059C39.2499 35.7166 39.0236 35.725 38.7977 35.7343C38.4743 35.734 38.1533 35.7201 37.8392 35.6725C37.7186 35.6539 37.5968 35.6313 37.4845 35.5973C37.1892 35.5086 36.9931 35.3283 37.1812 35.0678C37.1921 35.0516 37.2054 35.0353 37.2201 35.0185C37.3347 34.8868 37.4915 34.7803 37.6614 34.6816C37.9716 34.5017 38.3115 34.3505 38.6653 34.2156C39.3999 33.9359 40.1559 33.6899 40.9581 33.5169C41.5744 33.3838 42.1997 33.2747 42.8366 33.2068C43.133 33.1748 43.4334 33.1549 43.7341 33.1705C43.9799 33.1839 44.2162 33.2129 44.4432 33.2587C44.8675 33.3434 45.2579 33.4847 45.614 33.6829C45.7555 33.7618 45.877 33.8555 45.9746 33.9629C46.1859 34.1968 46.1742 34.4997 45.801 34.7251ZM35.7547 33.3832C35.5566 33.4041 35.3619 33.387 35.1677 33.3783C34.7922 33.3614 34.437 33.2877 34.0977 33.1783C33.6797 33.0437 33.2996 32.8682 32.9355 32.6761C32.7309 32.5679 32.5286 32.4579 32.333 32.3424C32.1598 32.2394 31.9925 32.1321 31.8341 32.0172C31.4535 31.7421 31.1559 31.4319 31.0039 31.0608C30.917 30.8476 30.8749 30.6305 30.8666 30.4091C30.8594 30.2328 30.8817 30.0581 30.9327 29.8851C31.0858 29.3652 31.5188 28.9929 32.2046 28.753C32.5948 28.6166 33.0075 28.5327 33.4389 28.4924C33.5464 28.482 33.6579 28.4907 33.7673 28.4907C34.3326 28.4811 34.8425 28.6059 35.3247 28.793C35.8077 28.9805 36.2504 29.2076 36.693 29.4363C37.4966 29.8515 38.3018 30.2655 39.107 30.6798C39.1699 30.7121 39.2323 30.7446 39.2952 30.7768C39.5576 30.912 39.8098 31.055 40.0323 31.221C40.247 31.3812 40.4152 31.557 40.4793 31.7778C40.5253 31.938 40.492 32.0871 40.3962 32.2325C40.2727 32.4184 40.0651 32.5504 39.8144 32.6561C39.5436 32.771 39.2523 32.8536 38.9495 32.9166C38.1143 33.0901 37.2654 33.2274 36.4081 33.3368C36.1929 33.364 35.9711 33.3602 35.7547 33.3832ZM30.4576 25.7818C30.4101 25.5552 30.3794 25.3255 30.3656 25.0944C30.3536 24.8995 30.32 24.7059 30.3063 24.5109C30.2942 24.3456 30.2969 24.1796 30.2933 24.0136H30.2971C30.2993 23.8778 30.2978 23.7421 30.305 23.6063C30.3176 23.3567 30.3989 23.1174 30.5951 22.9029C30.828 22.6482 31.1769 22.5069 31.5967 22.4509C31.8954 22.4114 32.1951 22.4048 32.4954 22.421C32.5668 22.4248 32.6373 22.43 32.7087 22.4361C32.9687 22.4593 33.2309 22.473 33.4896 22.5014C34.0432 22.5617 34.598 22.6218 35.1481 22.6949C35.9933 22.8072 36.8293 22.945 37.6547 23.1095C38.1173 23.2015 38.5751 23.301 39.0137 23.4382C39.3006 23.5282 39.5672 23.637 39.7869 23.7963C39.9381 23.9063 40.0329 24.0345 40.0465 24.1831C40.0541 24.2591 40.0181 24.3415 39.9784 24.4158C39.9282 24.5107 39.839 24.5916 39.7372 24.6668C39.5074 24.8353 39.2356 24.9647 38.9414 25.0692C38.5502 25.2082 38.1541 25.3411 37.7526 25.4652C36.5609 25.8346 35.3425 26.1567 34.1191 26.4706C33.8203 26.5472 33.5198 26.6227 33.2189 26.6943C33.0907 26.7251 32.9626 26.755 32.8345 26.784C32.5413 26.8505 32.2377 26.8821 31.9275 26.8804C31.5843 26.8777 31.2832 26.8049 31.0219 26.6561C30.8846 26.5774 30.7937 26.4747 30.7108 26.3688C30.5672 26.1863 30.4999 25.9858 30.4576 25.7818ZM28.3144 35.3678C28.1393 35.4165 27.9581 35.4391 27.7765 35.4348C27.5132 35.4291 27.2476 35.4398 26.9867 35.4203C26.6325 35.3937 26.2794 35.351 25.9293 35.3043C25.8264 35.2909 25.7226 35.2767 25.6205 35.2625C24.8724 35.1592 24.1291 35.0403 23.3986 34.8891C23.1551 34.8383 22.9156 34.7762 22.6795 34.7109C21.9878 34.5197 21.5365 34.1727 21.3086 33.687C21.249 33.5585 21.1974 33.4279 21.1395 33.2987C21.0249 33.0446 20.9039 32.7939 20.6805 32.5716C20.4077 32.3006 20.0546 32.1019 19.6081 31.9803C19.2537 31.8831 18.8839 31.8297 18.5048 31.8007C18.0269 31.7639 17.5486 31.7293 17.0721 31.6841C16.7678 31.6551 16.4719 31.5991 16.1945 31.5059C15.8439 31.3884 15.5668 31.2198 15.3959 30.9732C15.3302 30.8783 15.2891 30.7802 15.2679 30.6798C15.251 30.6038 15.2459 30.5264 15.2494 30.4474C15.2594 30.191 15.377 29.9539 15.538 29.725C15.783 29.3774 16.1072 29.0654 16.4713 28.7721C16.9558 28.3813 17.5175 28.0482 18.1122 27.7412C18.5474 27.5166 18.9898 27.2976 19.44 27.0881C19.7378 26.9491 20.0413 26.8168 20.3531 26.6943C20.6658 26.5713 20.9877 26.4585 21.3203 26.3598C21.5904 26.2794 21.8688 26.2136 22.1565 26.1732C22.3933 26.1404 22.634 26.1271 22.8723 26.1602C23.2591 26.2141 23.524 26.3749 23.684 26.6171C23.7007 26.6422 23.7164 26.668 23.731 26.6943C23.8024 26.8229 23.8463 26.9575 23.8681 27.0947C23.9026 27.3138 23.9218 27.5343 23.9186 27.7554C23.913 28.123 23.9066 28.4901 23.9006 28.8574C23.8931 29.3156 23.8737 29.7737 23.8819 30.2316C23.8849 30.3807 23.8897 30.5307 23.9041 30.6798C23.9182 30.8304 23.9428 30.9805 23.9847 31.129C24.1066 31.5581 24.4106 31.9127 24.878 32.2037C25.2023 32.4057 25.5566 32.5812 25.911 32.7565C26.1135 32.8563 26.3156 32.9575 26.5151 33.0611C26.8445 33.2314 27.1671 33.4078 27.4768 33.595C27.859 33.8265 28.2296 34.0674 28.5152 34.3616C28.6324 34.4829 28.7377 34.6079 28.7843 34.753C28.7892 34.7675 28.7974 34.7814 28.801 34.7965C28.8684 35.0693 28.6979 35.2607 28.3144 35.3678ZM14.112 26.8722C13.8093 27.0562 13.5208 27.2503 13.2419 27.4525C12.6332 27.8935 12.097 28.3737 11.5691 28.8592C11.3794 29.0333 11.1851 29.2044 10.9536 29.3545C10.8019 29.4522 10.6382 29.537 10.445 29.59C10.1631 29.6675 9.88713 29.6608 9.6221 29.5582C9.46753 29.4984 9.34035 29.4177 9.23243 29.3217C8.96783 29.0878 8.82353 28.8159 8.73734 28.5293C8.70521 28.4254 8.67986 28.3203 8.6629 28.2202C8.64124 28.0978 8.63257 27.982 8.64012 27.8819C8.64229 27.7499 8.65451 27.622 8.67475 27.4969C8.76544 26.9401 9.03218 26.4474 9.44809 25.9849C9.67626 25.7307 9.94723 25.4995 10.2446 25.2807C10.9027 24.7947 11.6732 24.4108 12.5062 24.083C13.1618 23.825 13.8454 23.61 14.5476 23.4226C14.6948 23.3834 14.8422 23.3454 14.99 23.3086C15.7696 23.1147 16.5614 22.9552 17.3642 22.8234C18.6995 22.6911 20.008 22.58 21.2877 22.4904C21.344 22.499 21.4001 22.5093 21.4558 22.5214C21.6698 22.5678 21.8515 22.6499 21.9898 22.7709C22.1598 22.9198 22.1828 23.0915 22.1203 23.2708C22.0608 23.4421 21.9233 23.5839 21.7496 23.7116C21.5164 23.8825 21.2465 24.0206 20.9554 24.1419C20.5009 24.3305 20.0195 24.4811 19.546 24.6433C18.9815 24.8371 18.4124 25.026 17.8458 25.2181C17.286 25.4084 16.7439 25.6216 16.2077 25.8422C15.6111 26.0871 15.0349 26.3508 14.4948 26.6505C14.3656 26.7216 14.238 26.7955 14.112 26.8722ZM55.1117 32.7196C54.8532 32.6845 54.5889 32.6892 54.3305 32.7251C54.0797 32.76 53.8317 32.8061 53.5824 32.849C53.1348 32.9262 52.6844 32.9935 52.222 33.0109C51.8864 33.0236 51.5503 33.0169 51.2155 32.9909C50.8892 32.9657 50.5685 32.9285 50.256 32.8632C50.2545 32.8627 50.2529 32.8623 50.2513 32.8621C49.9425 32.7971 49.6472 32.7106 49.4023 32.5618C49.2136 32.4463 49.1018 32.3041 49.1343 32.1236C49.158 31.9943 49.2545 31.8877 49.3816 31.7923C49.608 31.6217 49.8856 31.496 50.1761 31.3872C50.211 31.3739 50.2458 31.3609 50.2807 31.3478C50.8472 31.1371 51.4199 30.9358 51.988 30.7274C52.8917 30.3966 53.7588 30.0259 54.5603 29.5851C55.0785 29.2996 55.5566 28.9865 55.9537 28.6181C56.5537 28.061 56.9023 27.4519 56.8305 26.7498C56.8054 26.5023 56.7353 26.2632 56.6221 26.0299C56.4192 25.6121 56.1037 25.2363 55.709 24.8919C55.4969 24.7071 55.2592 24.5385 54.9842 24.3957C54.7009 24.2489 54.3863 24.1483 54.0345 24.1056C53.6556 24.0598 53.2775 24.0731 52.9009 24.1245C52.0651 24.2391 51.2536 24.4129 50.4617 24.6317C50.0659 24.741 49.6821 24.8699 49.3576 25.0669C48.9823 25.2952 48.766 25.5773 48.7354 25.9228C48.7166 26.1376 48.7822 26.3418 48.8842 26.5417C48.91 26.5925 48.9375 26.6436 48.9645 26.6943C49.0502 26.8548 49.1393 27.0147 49.2174 27.1769C49.4447 27.6498 49.4433 28.1236 49.1769 28.594C48.9688 28.9604 48.6495 29.2813 48.2589 29.5669C47.7327 29.9522 47.1447 30.2882 46.4926 30.5681C46.0924 30.7399 45.6778 30.8917 45.2215 30.981C44.9771 31.0285 44.7284 31.0513 44.4794 31.0489C44.3864 31.0486 44.293 31.0452 44.1989 31.0379C43.8629 31.0124 43.5453 30.9398 43.2375 30.8458C43.0681 30.7943 42.8999 30.7389 42.7329 30.6798C42.4706 30.5882 42.2149 30.4883 41.9625 30.3839C41.1019 30.0267 40.2631 29.6463 39.4471 29.2433C39.175 29.1096 38.9127 28.9662 38.6547 28.8206C38.434 28.6961 38.2419 28.5505 38.1027 28.3781C37.8413 28.054 37.8799 27.7865 38.1663 27.5166C38.2959 27.3939 38.4708 27.2982 38.659 27.2166C38.9723 27.0817 39.3075 26.9784 39.6489 26.8856C39.8866 26.8211 40.1248 26.7576 40.3625 26.6943C40.7748 26.5847 41.187 26.4753 41.5972 26.3607C42.8626 26.0084 44.126 25.6515 45.389 25.2941C46.1092 25.0904 46.8396 24.9091 47.5881 24.7622C48.0326 24.6752 48.4725 24.5759 48.9079 24.4703C49.34 24.3659 49.7397 24.2147 50.096 24.0145C50.1536 23.982 50.2096 23.9469 50.264 23.9093C50.3558 23.8458 50.4049 23.759 50.4064 23.67L50.4576 20.5442C50.4632 20.1992 50.1143 19.9017 49.623 19.8325C44.4598 19.1064 39.4046 18.652 34.4572 18.468C33.3938 18.4284 32.5706 17.8247 32.5826 17.0933L32.5984 16.1294C32.6025 15.8787 32.3098 15.6756 31.9447 15.6756H27.4608C27.0956 15.6756 26.7963 15.8787 26.7922 16.1294L26.7766 17.0845C26.7645 17.8202 25.9119 18.4244 24.8406 18.4599C19.8335 18.6259 14.7655 19.0828 9.63708 19.83C9.14781 19.9013 8.79419 20.1977 8.78859 20.5402L8.74684 23.0923C8.74158 23.414 8.49323 23.7138 8.08839 23.8788C7.58996 24.0821 7.10354 24.2988 6.63008 24.5307C5.95213 24.8626 5.31337 25.2276 4.72175 25.6301C4.54951 25.7473 4.38643 25.8712 4.22585 25.9965C3.66329 26.4341 3.17705 26.9067 2.80784 27.4342C2.45119 27.944 2.22101 28.4747 2.16948 29.0399C2.13506 29.4148 2.1878 29.7813 2.31415 30.1437C2.51047 30.7025 2.88311 31.2036 3.36842 31.6655C3.7576 32.0357 4.21038 32.3665 4.69986 32.6749C5.19399 32.9869 5.72329 33.2677 6.27696 33.5271C6.76057 33.7535 7.25885 33.9036 7.7683 34.0585C8.25156 34.2055 8.55956 34.5355 8.55361 34.8999L8.52065 36.9129C8.51499 37.258 8.86424 37.5557 9.3558 37.6246C14.5183 38.3484 19.5731 38.802 24.5205 38.985C25.5841 39.0243 26.4076 39.6281 26.3956 40.3597L26.3709 41.8704C26.3668 42.121 26.6595 42.3242 27.0246 42.3242H31.5085C31.8737 42.3242 32.173 42.121 32.1771 41.8704L32.2017 40.3684C32.2137 39.6325 33.0667 39.0283 34.1382 38.993C39.1445 38.8279 44.2119 38.3729 49.3405 37.6278C49.8301 37.5567 50.184 37.2601 50.1896 36.9175L50.2021 36.1535C50.209 35.7337 50.6291 35.3672 51.2231 35.2628C51.7267 35.1743 52.2262 35.0884 52.7221 34.9456C53.4203 34.7451 54.1144 34.5374 54.7775 34.2853C54.9957 34.2028 55.2031 34.1057 55.4056 34.0047C55.5663 33.9249 55.7036 33.8245 55.8146 33.7096C56.0201 33.494 56.047 33.1972 55.7817 32.9787C55.6053 32.8328 55.3741 32.755 55.1117 32.7196Z" fill="black"/>
</svg>
